<svg width="420" height="28" fill="none" xmlns="http://www.w3.org/2000/svg"><path d="M418.471 9.267a.5.5 0 00-.089-.702l-3.557-2.757a.5.5 0 10-.612.79l3.161 2.451-2.451 3.161a.5.5 0 00.791.613l2.757-3.556zM.704 7.637l2.011.32.157-.988c-.669-.106-1.339-.212-2.01-.32l-.158.988zm6.012.952c1.329.208 2.653.415 3.974.62l.153-.988c-1.32-.205-2.644-.412-3.972-.62l-.155.988zm7.931 1.231c1.342.206 2.68.41 4.013.612l.15-.989c-1.333-.202-2.67-.406-4.011-.611l-.152.988zm8 1.213c1.325.198 2.645.394 3.961.588l.146-.989c-1.315-.194-2.635-.39-3.96-.588l-.147.989zm7.966 1.175c1.337.195 2.67.387 3.998.578l.142-.99c-1.328-.19-2.66-.383-3.996-.577l-.144.99zm7.971 1.143c1.336.188 2.667.375 3.994.559l.138-.99c-1.327-.185-2.657-.37-3.992-.56l-.14.991zm8 1.11c1.332.182 2.66.362 3.984.539l.133-.991c-1.324-.178-2.65-.357-3.981-.538l-.135.99zm7.973 1.068c1.34.177 2.678.35 4.012.523l.128-.992c-1.333-.172-2.67-.346-4.01-.522l-.13.991zm8.004 1.031c1.333.169 2.662.334 3.988.498l.122-.992c-1.325-.164-2.653-.33-3.985-.498l-.125.992zm8.005.988c1.336.161 2.669.32 3.999.476l.117-.993a1234.3 1234.3 0 01-3.996-.476l-.12.993zm7.99.94c1.343.154 2.683.306 4.02.455l.111-.994c-1.336-.149-2.675-.3-4.017-.455l-.114.994zm8.024.896c1.335.145 2.666.287 3.996.427l.105-.994c-1.329-.14-2.66-.283-3.993-.427l-.108.994zm8.019.844c1.338.137 2.674.271 4.008.403l.099-.995c-1.333-.132-2.668-.266-4.006-.403l-.101.995zm8.011.791c1.343.128 2.684.254 4.024.377l.091-.996c-1.338-.123-2.678-.248-4.02-.376l-.095.995zm8.036.739c1.338.118 2.675.234 4.01.347l.084-.996c-1.333-.113-2.669-.23-4.005-.347l-.089.996zm8.034.681c1.341.11 2.679.216 4.017.32l.077-.998c-1.336-.103-2.674-.21-4.013-.318l-.081.996zm8.032.623c1.343.1 2.685.196 4.026.29l.07-.997c-1.34-.094-2.68-.19-4.022-.29l-.074.997zm8.046.564c1.341.09 2.681.176 4.021.26l.062-.999c-1.338-.083-2.677-.17-4.017-.258l-.066.997zm8.047.503c1.341.079 2.683.155 4.024.228l.055-.998c-1.34-.074-2.68-.15-4.021-.228l-.058.998zm8.048.44c1.343.069 2.685.134 4.027.197l.047-.998c-1.341-.063-2.682-.129-4.023-.197l-.051.999zm8.055.378c1.342.058 2.684.113 4.027.165l.039-.999a889.254 889.254 0 01-4.023-.165l-.043 1zm8.054.314c1.343.047 2.687.092 4.032.134l.031-1a1069.3 1069.3 0 01-4.028-.133l-.035 1zm8.059.25c1.342.037 2.684.07 4.028.102l.023-1c-1.342-.03-2.684-.065-4.024-.1l-.027.999zm8.064.187c1.34.026 2.682.05 4.026.07l.015-1c-1.342-.02-2.683-.044-4.022-.07l-.019 1zm8.055.123c1.344.016 2.69.028 4.039.038l.007-1a1036.3 1036.3 0 01-4.035-.038l-.011 1zm8.063.06c1.341.006 2.684.008 4.029.008l-.001-1c-1.343 0-2.685-.002-4.024-.007l-.004 1zm8.071 0c1.338-.006 2.678-.014 4.021-.024l-.007-1c-1.342.01-2.681.018-4.018.023l.004 1zm8.049-.063c1.346-.016 2.694-.034 4.045-.054l-.016-1c-1.349.02-2.696.038-4.04.054l.011 1zm8.064-.122c1.339-.026 2.681-.053 4.026-.083l-.022-1c-1.344.03-2.685.058-4.023.083l.019 1zm8.071-.18c1.336-.035 2.676-.072 4.019-.112l-.03-1c-1.341.04-2.68.077-4.015.111l.026 1zm8.042-.237c1.344-.044 2.692-.09 4.044-.14l-.036-.999c-1.351.05-2.697.095-4.041.14l.033 1zm8.064-.291c1.335-.053 2.675-.108 4.018-.166l-.043-.999c-1.342.058-2.68.113-4.015.165l.04 1zm8.059-.345c1.338-.061 2.679-.125 4.025-.19l-.049-1c-1.345.066-2.685.13-4.021.191l.045 1zm8.036-.394c1.342-.07 2.687-.142 4.037-.216l-.055-.998c-1.349.074-2.693.146-4.034.216l.052.998zm8.07-.444c1.33-.078 2.665-.157 4.003-.238l-.061-.999c-1.337.082-2.671.161-4 .238l.058.999zm8.032-.49c1.345-.085 2.695-.173 4.049-.263l-.067-.998c-1.353.09-2.702.178-4.046.264l.064.997zm8.04-.534c1.335-.092 2.674-.187 4.018-.283l-.072-.998c-1.343.097-2.681.191-4.015.283l.069.998zm8.063-.579c1.33-.099 2.665-.2 4.004-.303l-.077-.997c-1.338.103-2.672.204-4.001.303l.074.997zm8.008-.615c1.34-.107 2.684-.215 4.033-.325l-.081-.997c-1.349.11-2.692.219-4.031.325l.079.997zm8.064-.659c1.325-.111 2.654-.224 3.988-.34l-.086-.996c-1.333.115-2.662.228-3.986.34l.084.996zm8.005-.69c1.344-.12 2.692-.24 4.046-.363l-.09-.995c-1.353.122-2.701.243-4.044.362l.088.996zm8.037-.728c1.328-.123 2.66-.248 3.998-.375l-.095-.995c-1.336.126-2.668.251-3.995.374l.092.996zm8.025-.76c1.34-.13 2.686-.26 4.036-.394l-.098-.995c-1.35.133-2.695.264-4.035.394l.097.995zm8.012-.79c1.33-.133 2.665-.268 4.004-.405l-.101-.995c-1.34.137-2.674.272-4.003.405l.1.995zm8.039-.822c1.332-.138 2.669-.278 4.01-.42l-.105-.995c-1.341.142-2.677.282-4.008.42l.103.995zm7.99-.844c1.331-.143 2.668-.288 4.009-.434l-.108-.994-4.008.434.107.994zm8.049-.877c1.325-.147 2.655-.295 3.991-.445l-.112-.993c-1.335.15-2.664.297-3.989.444l.11.994zm7.971-.894c1.332-.15 2.669-.304 4.01-.458l-.114-.993c-1.341.154-2.677.307-4.009.458l.113.993zm8.051-.925l3.982-.466-.117-.993c-1.332.156-2.659.312-3.98.465l.115.994zm7.96-.937l4.008-.48-.119-.993c-1.341.162-2.677.321-4.007.48l.118.993zm8.046-.968c1.323-.16 2.651-.323 3.984-.487l-.122-.992-3.982.486.12.993zm7.956-.976l4.002-.498-.124-.993c-1.338.168-2.672.334-4.001.498l.123.993zm8.034-1.005l2.027-.256-.125-.992-2.027.256.125.992zm2.755-.14a1 1 0 00-.178-1.402l-7.113-5.514a1 1 0 10-1.225 1.58l6.323 4.902-4.902 6.322a1 1 0 001.581 1.226l5.514-7.113zM.626 8.132l2.01.32.314-1.975-2.01-.32L.627 8.13zm6.012.952c1.33.208 2.654.415 3.975.62l.307-1.976c-1.32-.205-2.643-.412-3.971-.62l-.31 1.976zm7.933 1.231l4.014.613.3-1.978c-1.333-.202-2.67-.406-4.01-.612l-.304 1.977zm8.002 1.213c1.325.198 2.646.395 3.962.589l.292-1.979c-1.315-.194-2.634-.39-3.958-.588l-.296 1.978zm7.968 1.176c1.337.195 2.67.387 4 .578l.283-1.98c-1.328-.19-2.659-.383-3.995-.577l-.288 1.98zm7.974 1.143c1.335.189 2.667.375 3.995.56l.275-1.982c-1.327-.184-2.657-.37-3.99-.558l-.28 1.98zm8.002 1.11c1.332.183 2.66.362 3.985.54l.265-1.983c-1.323-.177-2.65-.356-3.98-.538l-.27 1.982zm7.974 1.069c1.342.176 2.68.35 4.014.522l.256-1.983c-1.333-.172-2.669-.346-4.009-.522l-.26 1.983zm8.007 1.032c1.333.168 2.663.334 3.99.497l.245-1.985c-1.325-.163-2.653-.329-3.984-.497l-.25 1.985zm8.009.988c1.336.16 2.669.32 4 .476l.233-1.986c-1.328-.157-2.66-.315-3.994-.476l-.24 1.985zm7.992.94c1.343.154 2.684.306 4.022.455l.222-1.988c-1.336-.149-2.675-.3-4.016-.454l-.228 1.987zm8.027.896c1.335.145 2.668.287 3.998.427l.21-1.989c-1.329-.14-2.66-.282-3.992-.427l-.216 1.989zm8.022.845c1.339.136 2.676.27 4.01.402l.197-1.99c-1.333-.132-2.667-.266-4.004-.402l-.203 1.99zm8.014.79c1.344.13 2.686.255 4.026.378l.183-1.992c-1.338-.123-2.677-.248-4.019-.376l-.19 1.99zm8.04.74c1.339.118 2.676.234 4.011.347l.169-1.993a1139.35 1139.35 0 01-4.003-.346l-.177 1.992zm8.038.682c1.341.109 2.68.215 4.018.319l.155-1.994c-1.336-.104-2.673-.21-4.011-.319l-.162 1.994zm8.036.623c1.343.1 2.685.196 4.027.29l.14-1.995c-1.339-.094-2.679-.19-4.02-.29l-.147 1.995zm8.049.564c1.342.09 2.682.176 4.023.26l.124-1.997c-1.337-.083-2.676-.17-4.015-.258l-.132 1.995zm8.051.503c1.342.079 2.684.155 4.026.229l.109-1.997c-1.339-.074-2.679-.15-4.018-.228l-.117 1.996zm8.052.441c1.343.068 2.686.134 4.029.197l.093-1.998c-1.34-.063-2.68-.128-4.02-.196l-.102 1.997zm8.058.378c1.343.058 2.686.113 4.029.165l.078-1.999c-1.341-.052-2.681-.107-4.021-.164l-.086 1.998zm8.059.314c1.343.047 2.688.091 4.033.133l.062-1.999a896.573 896.573 0 01-4.025-.133l-.07 1.999zm8.063.25c1.342.037 2.685.07 4.03.102l.046-2a1023.1 1023.1 0 01-4.022-.1l-.054 1.998zm8.067.187c1.341.026 2.684.05 4.028.07l.031-2c-1.342-.02-2.682-.044-4.02-.07l-.039 2zm8.059.123c1.345.016 2.692.028 4.041.038l.015-2c-1.346-.01-2.691-.022-4.033-.038l-.023 2zm8.067.06c1.342.006 2.685.008 4.031.008l-.001-2c-1.343 0-2.684-.002-4.023-.007l-.007 2zm8.075 0c1.338-.006 2.68-.014 4.023-.024l-.015-2c-1.341.01-2.68.018-4.016.023l.008 2zm8.053-.063c1.346-.016 2.695-.034 4.046-.054l-.03-2c-1.349.02-2.695.038-4.039.054l.023 2zm8.067-.123c1.34-.025 2.683-.052 4.028-.082l-.044-2c-1.344.03-2.684.058-4.021.083l.037 2zm8.075-.18c1.337-.035 2.677-.072 4.02-.111l-.058-2c-1.341.04-2.679.077-4.014.112l.052 1.999zm8.045-.236c1.345-.044 2.694-.09 4.046-.14l-.072-1.998c-1.35.048-2.696.095-4.039.139l.065 1.999zm8.067-.292c1.337-.053 2.677-.108 4.02-.165l-.085-1.998c-1.342.057-2.679.112-4.014.165l.079 1.998zm8.063-.344c1.338-.062 2.68-.125 4.026-.191l-.098-1.998c-1.344.066-2.683.13-4.019.19l.091 1.999zm8.039-.394c1.342-.07 2.688-.142 4.038-.217l-.11-1.997c-1.348.075-2.692.147-4.032.216l.104 1.998zm8.073-.445c1.331-.077 2.666-.157 4.004-.238l-.121-1.997c-1.337.082-2.67.161-3.999.238l.116 1.997zm8.034-.49c1.346-.085 2.696-.173 4.051-.263l-.133-1.996c-1.353.09-2.701.178-4.045.264l.127 1.995zm8.043-.534c1.336-.093 2.675-.187 4.02-.284l-.144-1.994c-1.342.096-2.68.19-4.014.283l.138 1.995zm8.066-.58c1.331-.098 2.666-.2 4.005-.302l-.153-1.994c-1.338.103-2.671.203-4 .302l.148 1.995zm8.011-.615c1.34-.106 2.684-.214 4.034-.325l-.163-1.993a1710 1710 0 01-4.029.324l.158 1.994zm8.066-.659c1.325-.111 2.655-.224 3.989-.34l-.172-1.992c-1.333.115-2.661.228-3.984.34l.167 1.992zm8.007-.69c1.344-.12 2.693-.24 4.047-.363l-.18-1.991c-1.353.122-2.701.243-4.043.362l.176 1.992zm8.039-.728c1.328-.123 2.661-.248 3.999-.375l-.189-1.991c-1.336.127-2.668.251-3.994.374l.184 1.992zm8.027-.76c1.341-.13 2.687-.261 4.037-.395l-.196-1.99a2098.9 2098.9 0 01-4.034.394l.193 1.99zm8.014-.79l4.005-.406-.203-1.99c-1.339.137-2.673.272-4.002.406l.2 1.99zm8.041-.822l4.011-.42-.21-1.99c-1.341.142-2.677.282-4.008.42l.207 1.99zm7.991-.845c1.332-.143 2.669-.288 4.01-.434l-.216-1.988c-1.341.146-2.677.29-4.007.433l.213 1.989zm8.05-.877c1.326-.147 2.657-.295 3.992-.445l-.222-1.987c-1.335.15-2.665.297-3.989.444l.219 1.988zm7.974-.894c1.332-.151 2.668-.304 4.011-.458l-.229-1.987c-1.341.154-2.677.307-4.008.458l.226 1.987zm8.052-.926c1.322-.154 2.65-.309 3.982-.466l-.234-1.986c-1.331.157-2.658.312-3.979.466l.231 1.986zm7.961-.937c1.331-.158 2.667-.318 4.009-.48l-.239-1.985-4.006.48.236 1.985zm8.047-.968c1.324-.16 2.652-.323 3.984-.486l-.243-1.985-3.982.486.241 1.985zm7.958-.976c1.329-.165 2.663-.33 4.002-.498l-.248-1.985-4 .498.246 1.985zm8.035-1.004l2.027-.257-.251-1.984-2.026.256.25 1.985z" fill="#fff"/></svg>