<svg width="18" height="13" fill="none" xmlns="http://www.w3.org/2000/svg"><path d="M.803 5.535a.75.75 0 100 1.5v-1.5zm16 1.5a.75.75 0 000-1.5v1.5zm-16 0h16v-1.5h-16v1.5z" fill="#383433"/><path d="M11.3 10.79a.75.75 0 101.067 1.053L11.3 10.79zm6.036-3.978a.75.75 0 10-1.067-1.054l1.067 1.054zm-4.969 5.031l4.97-5.03-1.068-1.055L11.3 10.79l1.067 1.054z" fill="#383433"/><path d="M12.333.755a.75.75 0 10-1.06 1.06l1.06-1.06zm3.94 6.06a.75.75 0 101.06-1.06l-1.06 1.06zm-5-5l5 5 1.06-1.06-5-5-1.06 1.06z" fill="#383433"/></svg>