<svg width="31" height="31" fill="none" xmlns="http://www.w3.org/2000/svg"><g clip-path="url(#clip0)" fill="#F3525A"><path d="M15.52.14c-8.27 0-15 6.729-15 15 0 8.27 6.73 15 15 15 8.272 0 15-6.73 15-15 0-8.271-6.728-15-15-15zm0 28.125c-7.236 0-13.124-5.888-13.124-13.125 0-7.238 5.888-13.125 13.125-13.125S28.646 7.902 28.646 15.14c0 7.237-5.888 13.125-13.125 13.125z"/><path d="M16.458 5.765h-1.875v9.763l5.9 5.9 1.325-1.326-5.35-5.35V5.764z"/></g><defs><clipPath id="clip0"><path fill="#fff" d="M.521.14h30v30h-30z"/></clipPath></defs></svg>