<svg width="15" height="16" fill="none" xmlns="http://www.w3.org/2000/svg"><g clip-path="url(#clip0)" fill="#A4A4A4"><path d="M11.855 9.882c-.308-.32-.678-.49-1.07-.49-.39 0-.763.167-1.083.487l-1 .997-.244-.127a3.756 3.756 0 01-.314-.167c-.937-.596-1.788-1.371-2.605-2.375-.396-.5-.662-.921-.855-1.348.26-.238.5-.485.734-.722.09-.089.178-.18.266-.27.665-.664.665-1.525 0-2.19l-.864-.864c-.098-.098-.2-.2-.294-.301-.19-.196-.39-.399-.596-.589-.307-.304-.674-.465-1.06-.465s-.76.161-1.076.465l-.007.006L.711 3.015c-.405.406-.637.9-.687 1.472-.076.925.196 1.786.405 2.35.513 1.383 1.28 2.665 2.422 4.04a14.9 14.9 0 004.96 3.884c.729.345 1.7.753 2.787.823.066.003.136.006.2.006.73 0 1.345-.263 1.826-.785.003-.006.01-.01.013-.016.164-.2.354-.38.554-.573.136-.13.275-.266.411-.408.314-.326.478-.706.478-1.096 0-.392-.168-.769-.487-1.086l-1.738-1.744zm1.133 3.334c-.003 0-.003.003 0 0-.123.133-.25.253-.386.386a8.31 8.31 0 00-.611.633c-.32.342-.697.503-1.19.503-.048 0-.099 0-.146-.003-.94-.06-1.814-.427-2.47-.74a14.064 14.064 0 01-4.672-3.66C2.433 9.034 1.71 7.83 1.233 6.539.94 5.75.831 5.136.88 4.557c.031-.37.174-.677.436-.94l1.08-1.08c.155-.145.32-.225.481-.225.2 0 .361.12.462.222l.01.01c.193.18.377.367.57.566.098.102.2.203.3.307l.865.865c.335.335.335.645 0 .981-.092.092-.18.184-.272.272-.266.273-.52.526-.795.773-.006.006-.013.01-.016.016-.272.272-.221.538-.164.718l.009.029c.225.544.541 1.057 1.023 1.668l.003.003c.874 1.077 1.795 1.916 2.811 2.558.13.083.263.15.39.212.113.057.221.111.313.168.013.007.025.016.038.022.107.054.209.08.313.08a.673.673 0 00.481-.219L10.3 10.48c.108-.107.279-.237.478-.237.197 0 .358.123.456.231a.377.377 0 01.006.006l1.745 1.745c.326.323.326.655.003.99zM8.106 4.158c.83.14 1.583.532 2.185 1.134a4.035 4.035 0 011.133 2.184.425.425 0 00.421.355c.025 0 .048-.004.073-.007a.428.428 0 00.351-.494 4.883 4.883 0 00-1.37-2.643 4.883 4.883 0 00-2.644-1.37.43.43 0 00-.494.347.423.423 0 00.345.494zm6.877 3.049a8.033 8.033 0 00-2.258-4.353A8.033 8.033 0 008.372.597a.426.426 0 10-.139.842c1.475.25 2.82.95 3.89 2.016a7.172 7.172 0 012.018 3.891.425.425 0 00.42.355.42.42 0 00.421-.494z"/></g><defs><clipPath id="clip0"><path fill="#fff" d="M0 .59h15v15H0z"/></clipPath></defs></svg>