<svg width="31" height="31" fill="none" xmlns="http://www.w3.org/2000/svg"><g clip-path="url(#clip0)" fill="#F3525A"><path d="M15.768.6C9.952.6 5.22 5.33 5.22 11.146c0 1.965.544 3.883 1.574 5.546l8.372 13.492c.16.259.443.416.747.416h.007a.879.879 0 00.747-.428l8.16-13.622a10.534 10.534 0 001.487-5.404C26.315 5.331 21.583.6 15.768.6zm7.55 15.048l-7.417 12.384-7.612-12.266a8.778 8.778 0 01-1.322-4.62c0-4.846 3.955-8.8 8.8-8.8 4.847 0 8.796 3.954 8.796 8.8 0 1.59-.434 3.146-1.244 4.502z"/><path d="M15.768 5.873a5.28 5.28 0 00-5.274 5.273 5.267 5.267 0 005.274 5.274c2.982 0 5.273-2.416 5.273-5.274a5.28 5.28 0 00-5.273-5.273zm0 8.8a3.53 3.53 0 01-3.527-3.527 3.54 3.54 0 013.527-3.527 3.535 3.535 0 013.521 3.527 3.523 3.523 0 01-3.521 3.528z"/></g><defs><clipPath id="clip0"><path fill="#fff" d="M.768.6h30v30h-30z"/></clipPath></defs></svg>