<svg width="24" height="24" fill="none" xmlns="http://www.w3.org/2000/svg"><g clip-path="url(#clip0)" fill="#F3525A"><path d="M20.682 18.137l-3.355-3.355a1.789 1.789 0 00-2.53 0l-.977.977a16.47 16.47 0 01-5.472-5.472l1.071-1.071a1.791 1.791 0 000-2.53L6.064 3.33a1.788 1.788 0 00-2.533.002L1.423 5.457C.414 6.304.059 7.695.519 9.013c2.361 6.765 7.81 12.214 14.575 14.574 1.272.445 2.58.113 3.41-.744a.78.78 0 00.036-.033l2.142-2.142a1.79 1.79 0 000-2.53zM19.613 19.6l-2.094 2.094a.747.747 0 00-.072.069c-.441.479-1.15.644-1.855.398C9.258 19.95 4.157 14.85 1.947 8.515c-.253-.725-.07-1.476.465-1.914a.756.756 0 00.058-.053l2.132-2.149a.276.276 0 01.393 0L8.35 7.755a.278.278 0 010 .392L6.866 9.63a.755.755 0 00-.124.906 17.983 17.983 0 006.828 6.828.756.756 0 00.905-.124l1.39-1.39a.278.278 0 01.393 0l3.355 3.355a.278.278 0 010 .393zM12.402 6.683a.756.756 0 000 1.511 3.515 3.515 0 013.51 3.51.756.756 0 101.512 0 5.028 5.028 0 00-5.022-5.021z"/><path d="M12.402 3.716a.756.756 0 000 1.512 6.485 6.485 0 016.477 6.477.756.756 0 001.511 0c0-4.405-3.583-7.989-7.988-7.989z"/><path d="M20.125 3.982A10.85 10.85 0 0012.402.783a.756.756 0 000 1.512c5.189 0 9.41 4.221 9.41 9.41a.756.756 0 101.512 0 10.85 10.85 0 00-3.199-7.723z"/></g><defs><clipPath id="clip0"><path fill="#fff" d="M.321.782h23.003v23.003H.321z"/></clipPath></defs></svg>