<svg width="15" height="16" fill="none" xmlns="http://www.w3.org/2000/svg"><g clip-path="url(#clip0)" fill="#A4A4A4"><path d="M7.393 7.799c.993 0 1.852-.356 2.555-1.059a3.496 3.496 0 001.058-2.554c0-.993-.356-1.852-1.058-2.555A3.497 3.497 0 007.393.573 3.49 3.49 0 004.84 1.631a3.496 3.496 0 00-1.06 2.555c0 .992.356 1.852 1.059 2.554A3.497 3.497 0 007.393 7.8zM5.46 2.253a2.611 2.611 0 011.933-.801c.762 0 1.394.262 1.933.8.539.54.801 1.172.801 1.934 0 .761-.262 1.394-.801 1.933a2.612 2.612 0 01-1.933.8 2.612 2.612 0 01-1.933-.8 2.611 2.611 0 01-.8-1.933c0-.762.261-1.394.8-1.933zm8.255 9.854a8.911 8.911 0 00-.122-.948c-.06-.339-.14-.66-.233-.953a4.71 4.71 0 00-.392-.888 3.35 3.35 0 00-.59-.77 2.604 2.604 0 00-.849-.533 2.933 2.933 0 00-1.083-.196c-.153 0-.301.063-.587.249a79.76 79.76 0 01-.612.394 3.505 3.505 0 01-.792.349 3.13 3.13 0 01-.968.156 3.14 3.14 0 01-.968-.156 3.495 3.495 0 01-.79-.349 83.648 83.648 0 01-.613-.394c-.286-.187-.434-.25-.587-.25-.39 0-.754.067-1.083.197-.33.13-.615.31-.849.533a3.351 3.351 0 00-.59.77 4.716 4.716 0 00-.392.889 7.485 7.485 0 00-.233.952 9.22 9.22 0 00-.122.949c-.02.286-.03.584-.03.885 0 .783.25 1.417.74 1.885.485.461 1.126.695 1.906.695H11.1c.78 0 1.421-.234 1.906-.695.491-.467.74-1.101.74-1.885 0-.302-.01-.6-.03-.886zm-1.316 2.134c-.32.305-.745.453-1.3.453H3.876c-.554 0-.98-.148-1.3-.453-.314-.3-.467-.707-.467-1.248 0-.28.01-.558.028-.825a7.928 7.928 0 01.315-1.693c.079-.246.186-.489.319-.723.127-.223.273-.415.434-.569.15-.144.34-.262.565-.351.207-.082.44-.127.692-.134.03.017.085.048.174.106.18.118.39.252.62.4.259.165.593.314.993.443.408.132.825.2 1.238.2.414 0 .83-.068 1.239-.2.4-.129.734-.278.994-.444.235-.15.438-.281.619-.399a2.38 2.38 0 01.174-.106c.253.007.485.052.693.134.223.089.413.207.564.351.161.154.307.346.434.569.133.234.24.477.319.723a7.96 7.96 0 01.315 1.693c.019.266.028.543.028.825 0 .54-.153.949-.467 1.248z"/></g><defs><clipPath id="clip0"><path fill="#fff" d="M0 .573h15v15H0z"/></clipPath></defs></svg>