<svg width="140" height="30" fill="none" xmlns="http://www.w3.org/2000/svg"><path d="M3.332.783l4.56 24.36 4.52-24.36h2.88l-5.24 28h-4.6l-5.28-28h3.16zm20.319 15.84l-1.64 2.76v9.4h-3.12v-28h3.12v13.52L29.45.783h3.16l-7.08 12.76 7.32 15.24h-3.2l-6-12.16zm12.807 12.16v-28h3.12v25.16h8v2.84h-11.12zm17.836-5.64l-1.08 5.64h-2.88l5.36-28h4.52l5.36 28h-3.12l-1.08-5.64h-7.08zm.4-2.68h6.24l-3.16-16.16-3.08 16.16zM75.77.783c2.187 0 3.787.627 4.8 1.88 1.04 1.227 1.56 2.92 1.56 5.08v14.12c0 2.16-.52 3.854-1.56 5.08-1.013 1.227-2.613 1.84-4.8 1.84h-6.56v-28h6.56zm-.04 25.16c1.12 0 1.947-.333 2.48-1 .56-.693.84-1.68.84-2.96v-14.4c0-1.28-.28-2.253-.84-2.92-.533-.693-1.373-1.04-2.52-1.04h-3.36v22.32h3.4z" fill="#282828"/><path d="M92.349.783h-6.12v28h3.84v-19.8l3.28 19.8h4.16l3.04-20.08v20.08h4.16v-28h-6.12l-3 19.88-3.24-19.88zm16.2 6.72c0 8 8.6 9.08 8.6 14.84 0 2-.88 2.72-2.28 2.72s-2.28-.72-2.28-2.72v-2h-4.16v1.72c0 4.48 2.24 7.04 6.56 7.04 4.32 0 6.56-2.56 6.56-7.04 0-8-8.6-9.08-8.6-14.84 0-2 .8-2.76 2.2-2.76 1.4 0 2.2.76 2.2 2.76v1.16h4.16v-.88c0-4.48-2.2-7.04-6.48-7.04s-6.48 2.56-6.48 7.04zm26.761 21.28h4.52l-6.12-15.52 6.12-12.48h-4.4l-5.76 12.2V.783h-4.4v28h4.4v-8.6l1.36-2.56 4.28 11.16z" fill="#F3525A"/></svg>