<svg width="66" height="66" fill="none" xmlns="http://www.w3.org/2000/svg"><g clip-path="url(#clip0)" fill="#F3525A"><path d="M47.71 3.423L10.201.914a2.225 2.225 0 00-2.365 2.068L7.544 7.37H2.559A2.224 2.224 0 00.337 9.59v54.014c0 1.226.997 2.222 2.222 2.222h28.71a.962.962 0 00.671-.277l4.334-4.315c.044.01.089.017.135.02l7.4.495c1.18.078 2.285-.883 2.364-2.069l3.605-53.893a2.24 2.24 0 00-2.069-2.365zM32.22 62.57v-6.615c0-.175.143-.317.318-.317h6.589L32.22 62.57zm12.053-3.017c-.03.192-.144.29-.338.296l-5.875-.393 4.031-4.013a.952.952 0 00.28-.675V9.591A2.224 2.224 0 0040.15 7.37h-9.902c-1.23 0-1.23 1.904 0 1.904h9.902c.175 0 .317.142.317.317v44.143h-7.93a2.224 2.224 0 00-2.221 2.222v7.967H2.559a.318.318 0 01-.318-.318V9.591c0-.175.143-.317.318-.317h22.619c1.23 0 1.23-1.904 0-1.904H9.452l.285-4.26c.031-.192.144-.29.338-.296l37.507 2.509c.192.03.29.143.296.338l-3.605 53.894z"/><path d="M34.339 30.962H8.37a.952.952 0 000 1.905h25.969a.952.952 0 100-1.905zm0 6.638H8.37a.952.952 0 000 1.904h25.969a.952.952 0 100-1.904zM7.418 25.276c0 .526.426.953.952.953h25.969a.952.952 0 100-1.905H8.37a.952.952 0 00-.952.952zm4.574-6.637c0 .526.427.952.952.952h16.82a.952.952 0 000-1.904h-16.82a.952.952 0 00-.952.952zm13.07 37.935a4398.377 4398.377 0 01-6.864.013c-1.043 0-1.746-.209-1.98-1.356-.197-.97-1.569-.84-1.835 0-.66 2.074-1.75 1.261-2.36-.134-.608-1.392-.765-2.95-1.03-4.43-.196-1.089-1.842-.784-1.87.253-.039 1.365-.166 2.708-.513 4.032-.357 1.365-.893 2.678-1.424 3.983-.464 1.137 1.38 1.627 1.836.506.471-1.156.943-2.319 1.294-3.518.652 1.569 2.002 3.344 3.926 2.298.358-.195.692-.472.986-.794 1 1.156 2.49 1.065 3.882 1.063l5.952-.012c1.225-.003 1.227-1.907 0-1.904zm39.505-24.42c-.495-.492-1.175-.745-1.866-.763l-.72.003v-1.36c0-.83-.492-1.705-1.197-2.141v-1.917c0-3.944-6.14-3.927-6.14.019v1.917a2.516 2.516 0 00-1.201 2.14v1.393c-3.17.216-3.179 5.046.003 5.235.02 4.262.02 8.455-.003 12.789-.006 1.195 1.898 1.265 1.904.01.023-4.338.024-8.534.004-12.8l4.724-.023s-.006 14.072-.006 20.412c0 3.09-4.725 3.11-4.725-.033l.001-1.736c.075-1.229-1.826-1.343-1.9-.115v1.63c0 1.396.431 2.579 1.267 3.41a7.962 7.962 0 002.332 5.327c.407.404.97.28 1.364-.023a7.852 7.852 0 002.307-5.385c.629-.626 1.258-1.256 1.258-3.414V48.05c1.647.469 3.364-.805 3.364-2.532V34.01c0-.702-.273-1.36-.77-1.855zm-9.22-.727v-1.376a.61.61 0 01.454-.588l3.811-.02a.602.602 0 01.465.59v1.37l-4.73.024zm2.37-6.601c.585 0 1.163.573 1.163 1.15v1.545l-2.333.011v-1.537c0-.642.525-1.166 1.17-1.17zm-.001 38.58a6.073 6.073 0 01-.942-2.082c.295.064.594.097.892.097.334 0 .667-.041.996-.121a5.936 5.936 0 01-.946 2.107zm5.717-17.887c0 .902-1.454.973-1.454.017l.003-9.836a.96.96 0 00-.96-.954l-7.413.037c-.919 0-.898-1.438.01-1.443l9.092-.045c.44.038.68.275.722.713V45.52z"/></g><defs><clipPath id="clip0"><path fill="#fff" d="M.337.868h65v65h-65z"/></clipPath></defs></svg>