<svg width="66" height="66" fill="none" xmlns="http://www.w3.org/2000/svg"><g clip-path="url(#clip0)" fill="#F3525A"><path d="M65.19 9.072l-7.674-7.318c-.292-.28-.594-.57-1.157-.57H25.62a1.63 1.63 0 00-1.629 1.629v5L13.16 9.67a1.605 1.605 0 00-1.302 1.85l.55 3.206c-3.521 1.185-7.137 2.407-10.627 3.66a1.612 1.612 0 00-.963 2.049L7.76 39.734a.953.953 0 101.792-.645l-6.84-19.013c3.289-1.178 6.694-2.33 10.022-3.45l3.27 19.074 3.765 21.967a1.613 1.613 0 001.851 1.305l10.196-1.75 7.968-1.365-11.983 4.307-9.45 3.398-7.339-20.413a.952.952 0 10-1.792.644l7.443 20.703a1.608 1.608 0 001.507 1.056c.18 0 .363-.031.541-.096l9.734-3.5 22.102-7.944 4.222-.724h9.327c.898 0 1.629-.732 1.629-1.631V10.145c0-.57-.31-.86-.535-1.073zm-2.523.225h-4.883c-.228.002-.762.006-.897-.128-.032-.031-.068-.135-.068-.328l-.011-5.13 5.86 5.586zm1.153 42.087H25.897V32.827a.952.952 0 00-1.905 0v18.83c0 .899.73 1.631 1.629 1.631h17.876l-12.003 2.058-9.9 1.699-3.713-21.667-4.096-23.884 10.207-1.75V28.41a.952.952 0 001.905 0V3.088h29.005l.013 5.754c0 .698.212 1.262.63 1.677.643.638 1.551.683 2.115.683h.138l6.022-.001v40.182z"/><path d="M30.486 15.97c0 .525.427.951.953.951h27.223a.952.952 0 000-1.904H31.439a.952.952 0 00-.953.952zm28.176 5.811H31.439a.952.952 0 000 1.905h27.223a.952.952 0 000-1.905zm0 6.765H31.439a.952.952 0 100 1.904h27.223a.952.952 0 000-1.904zm0 6.764H31.439a.952.952 0 100 1.904h27.223a.952.952 0 000-1.904zm0 6.764H31.439a.952.952 0 100 1.905h27.223a.952.952 0 000-1.905z"/></g><defs><clipPath id="clip0"><path fill="#fff" d="M.725.868h65v65h-65z"/></clipPath></defs></svg>