<svg width="66" height="66" fill="none" xmlns="http://www.w3.org/2000/svg"><g clip-path="url(#clip0)" fill="#F3525A"><path d="M46.705 51.142a1.27 1.27 0 100 2.54 1.27 1.27 0 000-2.54z"/><path d="M49.83 47.036l-6.033-2.01-2.167-4.333c1.952-1.986 3.307-4.615 3.764-7.356l.27-1.62h2.31c2.1 0 3.809-1.708 3.809-3.808v-7.998C51.783 9.411 43.24.868 32.74.868c-10.527 0-19.043 8.518-19.043 19.043v7.998a3.815 3.815 0 002.54 3.59v1.488c0 2.1 1.708 3.809 3.808 3.809h1.115a13.773 13.773 0 002.688 3.9l-2.165 4.33-6.034 2.01C8.633 49.376 3.541 56.762 3.541 64.6c0 .7.568 1.27 1.27 1.27H60.67a1.27 1.27 0 001.27-1.27c0-7.837-5.093-15.223-12.11-17.563zm-.586-19.127c0 .7-.57 1.27-1.27 1.27h-1.937c.322-2.5.538-5.16.624-7.78l.007-.218h2.576v6.728zm-31.738 1.27c-.7 0-1.27-.57-1.27-1.27v-6.728h2.577a71.448 71.448 0 00.014.413 82.42 82.42 0 00.617 7.585h-1.938zm2.539 5.078c-.7 0-1.27-.57-1.27-1.27v-1.27h1.04l.271 1.62c.052.308.115.615.188.92h-.23zm-1.268-15.615h-2.493c.643-8.509 7.744-15.235 16.456-15.235 8.673 0 15.805 6.725 16.456 15.235h-2.493C46.61 11.63 40.902 5.946 33.876 5.946h-2.272c-7.026 0-12.735 5.684-12.827 12.696zM31.604 8.485h2.272c5.689 0 10.293 4.653 10.29 10.336 0 .4-.003.747-.01 1.063v.013l-1.588-.227a20.399 20.399 0 01-11.47-5.735 1.27 1.27 0 00-.897-.372c-3.41 0-6.673 1.554-8.83 4.178.531-5.17 4.901-9.256 10.233-9.256zm-8.698 25.772c-.635-2.114-1.362-8.335-1.523-12.321l1.708-2.279a8.936 8.936 0 016.608-3.54 22.963 22.963 0 0012.51 6.066l1.869.268a78.116 78.116 0 01-.746 7.759v.002c-.117.787-.209 1.293-.443 2.707-.672 4.033-3.681 7.68-7.653 8.673a10.325 10.325 0 01-4.991 0c-2.48-.62-4.755-2.336-6.222-4.796h2.588a3.815 3.815 0 003.59 2.539h2.539a3.808 3.808 0 100-7.617H30.2a3.81 3.81 0 00-3.591 2.539h-3.703zm7.188 9.904a12.804 12.804 0 004.722.107l-2.243 2.372-2.479-2.479zm.733 4.325l-4.026 4.258a48.386 48.386 0 01-2.843-6.591l1.513-3.024 5.356 5.357zm8.967-5.787l1.727 3.454a48.356 48.356 0 01-2.842 6.593l-4.31-4.31 5.425-5.737zm-10.863-7.173c0-.7.569-1.27 1.27-1.27h2.539a1.27 1.27 0 110 2.54H30.2c-.7 0-1.269-.57-1.269-1.27zM6.131 63.33c.503-6.289 4.688-12.005 10.321-13.884l5.344-1.78a50.891 50.891 0 003.614 7.837l.007.013a50.903 50.903 0 003.475 5.307l1.562 2.507H6.13zm26.609-1.132l-1.722-2.764a1.295 1.295 0 00-.061-.09 48.4 48.4 0 01-2.861-4.274l4.528-4.787 4.77 4.77a48.382 48.382 0 01-2.87 4.29c-.063.084.026-.047-1.784 2.855zm2.286 1.132l1.562-2.507a50.884 50.884 0 003.5-5.349l.018-.033.002-.005a50.855 50.855 0 003.576-7.77l5.344 1.78c5.633 1.879 9.818 7.595 10.321 13.884H35.026z"/><path d="M55.534 58.191a12.693 12.693 0 00-3.594-4.362 1.27 1.27 0 10-1.548 2.012c1.2.923 2.193 2.128 2.87 3.485a1.27 1.27 0 002.272-1.135z"/></g><defs><clipPath id="clip0"><path fill="#fff" d="M.24.868h65v65h-65z"/></clipPath></defs></svg>