<svg width="66" height="66" fill="none" xmlns="http://www.w3.org/2000/svg"><g clip-path="url(#clip0)" fill="#F3525A"><path d="M63.538 41.703h-2.986l-5.618-16.545c2.567-.769 4.364-3.202 4.345-5.881-.029-3.318-2.775-6.046-6.094-6.046a6.116 6.116 0 00-5.22 2.953 2.579 2.579 0 01-2.27 1.25 2.55 2.55 0 01-.647-.11l-8.2-2.366v-2.442l.71-1.55a4.902 4.902 0 00-.59-5.068l-3.472-4.462a1.27 1.27 0 00-2.006 0l-3.472 4.462a4.901 4.901 0 00-.59 5.068l.71 1.55v2.442l-8.2 2.366a2.579 2.579 0 01-2.917-1.14 6.123 6.123 0 00-5.496-2.947c-3.26.145-5.862 2.91-5.816 6.173.034 2.657 1.862 5.037 4.414 5.768L4.718 41.703H1.895c-.702 0-1.271.57-1.271 1.27v2.907a5.069 5.069 0 005.063 5.062h12.61a5.069 5.069 0 005.063-5.063v-2.905a1.27 1.27 0 00-1.27-1.271h-2.986l-5.532-16.289H28.14V55.68H15.466A5.871 5.871 0 009.6 61.544v3.11c0 .702.569 1.27 1.27 1.27h16.11a1.27 1.27 0 000-2.54H12.141v-1.84a3.327 3.327 0 013.324-3.323H49.46a3.327 3.327 0 013.324 3.323v1.84H38.153a1.27 1.27 0 000 2.54h15.902a1.27 1.27 0 001.271-1.27v-3.11a5.871 5.871 0 00-5.865-5.865H36.848V25.414h14.646l-5.327 16.289h-2.824a1.27 1.27 0 00-1.27 1.27v2.906a5.069 5.069 0 005.062 5.063h12.61a5.069 5.069 0 005.063-5.063v-2.905a1.27 1.27 0 00-1.27-1.271zm-13.9-22.38c0-1.872 1.52-3.467 3.393-3.547 2.012-.09 3.735 1.586 3.706 3.6-.028 1.912-1.637 3.497-3.55 3.497a3.555 3.555 0 01-3.55-3.55zM30.023 7.459l2.47-3.174 2.469 3.174a2.37 2.37 0 01.285 2.449l-.486 1.06h-4.537l-.486-1.06a2.368 2.368 0 01.284-2.449zM8.29 19.875a3.61 3.61 0 01-.039-.397c-.083-1.917 1.442-3.603 3.362-3.701 2-.1 3.735 1.54 3.735 3.546a3.555 3.555 0 01-3.55 3.55 3.556 3.556 0 01-3.508-2.998zM20.82 45.88a2.524 2.524 0 01-2.522 2.521H5.687a2.524 2.524 0 01-2.522-2.522v-1.635H20.82v1.636zM7.392 41.703l4.43-13.541 4.598 13.54H7.392v.001zm9.352-18.83a6.055 6.055 0 001.127-3.082 5.069 5.069 0 002.772-.025l7.496-2.163v5.27H16.744zM30.68 55.68V13.51h3.627v42.17H30.68zm6.168-38.076l7.496 2.163c.453.131.876.2 1.29.21a5.086 5.086 0 001.481-.186 6.055 6.055 0 001.127 3.083H36.848v-5.27zM53.27 28.162l4.598 13.54H48.84l4.43-13.54zm8.997 17.718a2.525 2.525 0 01-2.522 2.521h-12.61a2.525 2.525 0 01-2.521-2.522v-1.635h17.653v1.636z"/><path d="M33.667 64.192c-.427-1.025-1.923-1.023-2.347 0a1.283 1.283 0 00.343 1.448 1.286 1.286 0 001.484.128 1.282 1.282 0 00.52-1.576z"/></g><defs><clipPath id="clip0"><path fill="#fff" d="M.216.945h65v65h-65z"/></clipPath></defs></svg>