<svg width="66" height="66" fill="none" xmlns="http://www.w3.org/2000/svg"><g clip-path="url(#clip0)" fill="#F3525A"><path d="M32.742 39.945a2.166 2.166 0 112.167-2.167h2.166a4.333 4.333 0 00-3.25-4.179v-1.237H31.66V33.6a4.324 4.324 0 001.083 8.513 2.166 2.166 0 11-2.166 2.166H28.41a4.333 4.333 0 003.25 4.18v1.236h2.166v-1.237a4.324 4.324 0 00-1.083-8.512z"/><path d="M32.742 26.946c-7.777 0-14.082 6.305-14.082 14.082 0 7.778 6.305 14.083 14.082 14.083 7.778 0 14.083-6.305 14.083-14.083-.01-7.774-6.31-14.073-14.083-14.082zm0 25.998c-6.58 0-11.916-5.335-11.916-11.916 0-6.58 5.335-11.916 11.916-11.916s11.916 5.335 11.916 11.916c-.008 6.578-5.338 11.908-11.916 11.916z"/><path d="M64.157 24.78c.598 0 1.083-.486 1.083-1.084v-4.333c0-.014-.008-.025-.008-.039a1.068 1.068 0 00-.07-.346c0-.013 0-.028-.01-.04a1.083 1.083 0 00-.216-.32 1.232 1.232 0 00-.101-.08 1.095 1.095 0 00-.157-.123L33.263 1.083a1.077 1.077 0 00-1.046 0L.802 18.415a1.09 1.09 0 00-.157.124 1.225 1.225 0 00-.1.08c-.091.092-.165.2-.217.318 0 .013 0 .028-.01.041a1.056 1.056 0 00-.07.346c0 .014-.008.025-.008.039v4.333c0 .598.485 1.083 1.083 1.083h3.254v32.498h-3.25c-.598 0-1.083.485-1.083 1.083v6.5c0 .598.485 1.083 1.084 1.083h62.829c.598 0 1.083-.485 1.083-1.083v-6.5c0-.598-.485-1.083-1.083-1.083h-3.25V24.78h3.25zM32.742 3.267L59.95 18.28H5.534L32.742 3.268zm30.332 56.176v4.333H2.41v-4.333h60.663zm-56.33-2.167V24.78h4.333v32.498H6.744zm6.5 0V24.78H52.24v32.498H13.243zm41.163 0V24.78h4.333v32.498h-4.333zM2.411 22.613v-2.167h60.663v2.167H2.41z"/></g><defs><clipPath id="clip0"><path fill="#fff" d="M.24.945h65v65h-65z"/></clipPath></defs></svg>